<svg xmlns="http://www.w3.org/2000/svg" viewBox="0 0 64 64" role="img" aria-label="Cincinnati Hotel favicon">
  <defs>
    <linearGradient id="bg" x1="0" y1="0" x2="1" y2="1">
      <stop offset="0%" stop-color="#143a36" />
      <stop offset="55%" stop-color="#102c29" />
      <stop offset="100%" stop-color="#0b1d1b" />
    </linearGradient>
    <linearGradient id="gold" x1="0" y1="0" x2="1" y2="1">
      <stop offset="0%" stop-color="#f6e1a8" />
      <stop offset="50%" stop-color="#d8b56a" />
      <stop offset="100%" stop-color="#b8893d" />
    </linearGradient>
  </defs>
  <rect width="64" height="64" rx="18" fill="url(#bg)" />
  <path d="M20 18c0-1.1.9-2 2-2h2c1.1 0 2 .9 2 2v10h12V18c0-1.1.9-2 2-2h2c1.1 0 2 .9 2 2v28c0 1.1-.9 2-2 2h-2c-1.1 0-2-.9-2-2V34H26v12c0 1.1-.9 2-2 2h-2c-1.1 0-2-.9-2-2Z" fill="url(#gold)" />
  <path d="M18 14h28" stroke="#f1d59a" stroke-width="1.5" stroke-linecap="round" opacity="0.85" />
  <path d="M23 11h18" stroke="#c79b4d" stroke-width="1.5" stroke-linecap="round" opacity="0.75" />
  <circle cx="32" cy="50" r="1.5" fill="#f1d59a" opacity="0.9" />
</svg>
